# xmcd
#
# Track frame offsets:
#	150
#	16095
#	33482
#	50807
#	68492
#	82989
#	99429
#	114987
#	130882
#	147415
#	165980
#	184737
#	199415
#	219740
#	238157
#	258190
#	275475
#	291700
#	299735
#
# Disc length: 4127 seconds
#
# Revision: 946360942
# Processed by: cddbd v1.5.2PL0 Copyright (c) Steve Scherf et al.
# Submitted via: EZCDAudioConverter 8.2.3.1
#
DISCID=27101d13
DTITLE=Taylor Swift - 1989 (Deluxe Edition )
DYEAR=2014
DGENRE=Pop/Rock
TTITLE0=Welcome To New York
TTITLE1=Blank Space
TTITLE2=Style
TTITLE3=Out of the Woods
TTITLE4=All You Had To Do Was Stay
TTITLE5=Shake It Off
TTITLE6=I Wish You Would
TTITLE7=Bad Blood
TTITLE8=Wildest Dreams
TTITLE9=How You Get the Girl
TTITLE10=This Love
TTITLE11=I Know Places
TTITLE12=Clean
TTITLE13=Wonderland (Bonus Track)
TTITLE14=You Are In Love (Bonus Track)
TTITLE15=New Romantics (Bonus Track)
TTITLE16=I Know Places [Voice Memo,Piano/Vocal]
TTITLE17=I Wish You Would [Voice Memo,Track/Vocal]
TTITLE18=Blank Space [Voice Memo,Guitar/Vocal]
EXTD=
EXTT0=
EXTT1=
EXTT2=
EXTT3=
EXTT4=
EXTT5=
EXTT6=
EXTT7=
EXTT8=
EXTT9=
EXTT10=
EXTT11=
EXTT12=
EXTT13=
EXTT14=
EXTT15=
EXTT16=
EXTT17=
EXTT18=
PLAYORDER=
